<svg width="23" height="22" viewBox="0 0 23 22" fill="none" xmlns="http://www.w3.org/2000/svg">
<g id="Icons/FindPeople" clip-path="url(#clip0_203_253)">
<path id="Vector" fill-rule="evenodd" clip-rule="evenodd" d="M11.5908 0.00341797C5.54082 0.00341797 0.59082 4.95342 0.59082 11.0034C0.59082 17.0534 5.54082 22.0034 11.5908 22.0034C17.6408 22.0034 22.5908 17.0534 22.5908 11.0034C22.5908 4.95342 17.6408 0.00341797 11.5908 0.00341797ZM11.5908 20.6284C6.27415 20.6284 1.96582 16.3201 1.96582 11.0034C1.96582 5.68675 6.27415 1.37842 11.5908 1.37842C16.9075 1.37842 21.2158 5.68675 21.2158 11.0034C21.2158 16.3201 16.9075 20.6284 11.5908 20.6284ZM16.2658 5.41175L9.48249 8.62008C9.34499 8.66592 9.20749 8.80342 9.16165 8.94092L5.95332 15.7243C5.81582 15.9993 5.86165 16.3201 6.09082 16.5034C6.22832 16.6409 6.41165 16.6868 6.59499 16.6868C6.68665 16.6868 6.77832 16.6868 6.86999 16.6409L13.6533 13.4326C13.7908 13.3868 13.9283 13.2493 13.9742 13.1118L17.1825 6.32842C17.32 6.05342 17.2742 5.73258 17.045 5.54925C16.8617 5.32009 16.5408 5.27425 16.2658 5.41175ZM12.8742 12.2868L10.3533 9.76592L15.1658 7.47425L12.8742 12.2868Z" fill="#262626"/>
</g>
<defs>
<clipPath id="clip0_203_253">
<rect width="22" height="22" fill="white" transform="translate(0.59082 0.00341797)"/>
</clipPath>
</defs>
</svg>
