<svg width="23" height="25" viewBox="0 0 23 25" fill="none" xmlns="http://www.w3.org/2000/svg">
<path id="Vector" d="M12.0266 1.13381C11.8884 1.01484 11.7126 0.949463 11.5308 0.949463C11.349 0.949463 11.1732 1.01484 11.0351 1.13381L0.0908203 10.5792V21.6833C0.0908203 22.2943 0.331877 22.8803 0.76096 23.3123C1.19004 23.7444 1.772 23.9871 2.37882 23.9871L7.64815 24.0803C7.85042 24.0803 8.04441 23.9994 8.18744 23.8553C8.33047 23.7113 8.41082 23.516 8.41082 23.3123V17.1805C8.41082 16.5695 8.65188 15.9836 9.08096 15.5515C9.51004 15.1195 10.924 14.6091 11.5308 14.6091C12.1376 14.6091 13.5516 15.1195 13.9807 15.5515C14.4098 15.9836 14.6508 16.5695 14.6508 17.1805V23.3123C14.6508 23.516 14.7312 23.7113 14.8742 23.8553C15.0172 23.9994 15.2112 24.0803 15.4135 24.0803L20.6828 23.9871C21.2896 23.9871 21.8716 23.7444 22.3007 23.3123C22.7298 22.8803 22.9708 22.2943 22.9708 21.6833V10.5792L12.0266 1.13381Z" fill="#161722"/>
</svg>
