<svg width="24" height="23" viewBox="0 0 24 23" fill="none" xmlns="http://www.w3.org/2000/svg">
<path id="Vector" d="M22.5374 4.81025C22.1824 3.9385 21.6705 3.14853 21.0304 2.48456C20.3898 1.81861 19.6346 1.28939 18.8057 0.925675C17.9462 0.547029 17.0244 0.353217 16.0937 0.355488C14.788 0.355488 13.5141 0.734677 12.4071 1.45092C12.1422 1.62226 11.8906 1.81045 11.6522 2.01549C11.4139 1.81045 11.1623 1.62226 10.8974 1.45092C9.79039 0.734677 8.51648 0.355488 7.21079 0.355488C6.27059 0.355488 5.35953 0.546487 4.49878 0.925675C3.66717 1.29082 2.91765 1.81607 2.27408 2.48456C1.63315 3.14778 1.12115 3.93794 0.767112 4.81025C0.398978 5.71749 0.210938 6.68091 0.210938 7.67242C0.210938 8.60775 0.391032 9.5824 0.748573 10.5739C1.04785 11.4025 1.4769 12.262 2.02513 13.1299C2.89382 14.5034 4.08827 15.9359 5.5714 17.3881C8.02917 19.7952 10.4631 21.458 10.5664 21.5254L11.1941 21.9524C11.4722 22.1406 11.8297 22.1406 12.1078 21.9524L12.7355 21.5254C12.8388 21.4552 15.27 19.7952 17.7304 17.3881C19.2136 15.9359 20.408 14.5034 21.2767 13.1299C21.8249 12.262 22.2566 11.4025 22.5533 10.5739C22.9108 9.5824 23.0909 8.60775 23.0909 7.67242C23.0936 6.68091 22.9055 5.71749 22.5374 4.81025ZM11.6522 19.7306C11.6522 19.7306 2.22376 13.3237 2.22376 7.67242C2.22376 4.81025 4.4564 2.49018 7.21079 2.49018C9.14681 2.49018 10.8259 3.63617 11.6522 5.31021C12.4786 3.63617 14.1577 2.49018 16.0937 2.49018C18.8481 2.49018 21.0807 4.81025 21.0807 7.67242C21.0807 13.3237 11.6522 19.7306 11.6522 19.7306Z" fill="#161722"/>
</svg>
