<svg width="23" height="22" viewBox="0 0 23 22" fill="none" xmlns="http://www.w3.org/2000/svg">
<g id="Icons/Messenger" clip-path="url(#clip0_203_135)">
<path id="Vector" d="M17.1825 7.6575L13.8825 10.1783C13.6534 10.3617 13.3325 10.3617 13.1034 10.1783L10.6284 8.345C9.89503 7.795 8.84086 7.97834 8.33669 8.7575L5.22003 13.6617C4.89919 14.12 5.49503 14.67 5.95336 14.3492L9.29919 11.8283C9.52836 11.645 9.84919 11.645 10.0784 11.8283L12.5534 13.6617C13.2867 14.2117 14.3409 14.0283 14.845 13.2492L17.9617 8.345C18.2367 7.84084 17.6409 7.33667 17.1825 7.6575ZM11.5909 0.46167C5.63253 0.46167 1.04919 4.81584 1.04919 10.6825C1.04919 13.7533 2.28669 16.4117 4.34919 18.245C4.53253 18.3825 4.62419 18.6117 4.62419 18.8408L4.71586 20.72C4.71586 21.1783 5.12836 21.545 5.54086 21.545C5.63253 21.545 5.77003 21.545 5.86169 21.4533L7.97003 20.5367C8.06169 20.4908 8.19919 20.445 8.29086 20.445C8.38253 20.445 8.42836 20.445 8.52003 20.4908C9.48253 20.7658 10.4909 20.9033 11.5909 20.9033C17.5492 20.9033 22.1325 16.5492 22.1325 10.6825C22.1325 4.81584 17.5492 0.46167 11.5909 0.46167ZM11.5909 19.5283C10.6742 19.5283 9.75753 19.3908 8.88669 19.1617C8.70336 19.1158 8.52003 19.07 8.29086 19.07C7.97003 19.07 7.69503 19.1158 7.37419 19.2533L5.99919 19.8492V18.795C5.99919 18.1992 5.72419 17.6492 5.26586 17.2367C3.43253 15.5867 2.42419 13.2492 2.42419 10.6825C2.42419 5.64084 6.36586 1.83667 11.5909 1.83667C16.8159 1.83667 20.7575 5.64084 20.7575 10.6825C20.7575 15.7242 16.8159 19.5283 11.5909 19.5283Z" fill="#262626"/>
</g>
<defs>
<clipPath id="clip0_203_135">
<rect width="22" height="22" fill="white" transform="translate(0.59082 0.00341797)"/>
</clipPath>
</defs>
</svg>
