<svg width="23" height="22" viewBox="0 0 23 22" fill="none" xmlns="http://www.w3.org/2000/svg">
<g id="Icons/NewPosts" clip-path="url(#clip0_203_120)">
<path id="Vector" d="M14.6658 22.0034H7.51582C4.49082 22.0034 3.11582 21.2701 1.96999 20.1701C0.824154 18.9784 0.0908203 17.6034 0.0908203 14.5784V7.42842C0.0908203 4.40342 0.824154 3.02842 1.92415 1.88258C3.11582 0.736751 4.49082 0.00341797 7.51582 0.00341797H14.6658C17.6908 0.00341797 19.0658 0.736751 20.2117 1.83675C21.3575 3.02842 22.0908 4.40342 22.0908 7.42842V14.5784C22.0908 17.6034 21.3575 18.9784 20.2575 20.1243C19.0658 21.2701 17.6908 22.0034 14.6658 22.0034ZM7.51582 1.37842C4.67415 1.37842 3.66582 2.11175 2.88665 2.84508C2.19915 3.57842 1.46582 4.58675 1.46582 7.42842V14.5784C1.46582 17.4201 2.19915 18.4284 2.93249 19.2076C3.66582 19.9409 4.67415 20.6284 7.51582 20.6284H14.6658C17.5075 20.6284 18.5158 19.8951 19.295 19.1618C20.0283 18.4284 20.7158 17.4201 20.7158 14.5784V7.42842C20.7158 4.58675 19.9825 3.57842 19.2492 2.79925C18.5158 2.11175 17.5075 1.37842 14.6658 1.37842H7.51582Z" fill="#262626"/>
<path id="Vector_2" d="M16.7283 11.6909H5.45331C5.08664 11.6909 4.76581 11.3701 4.76581 11.0034C4.76581 10.6368 5.08664 10.3159 5.45331 10.3159H16.7283C17.095 10.3159 17.4158 10.6368 17.4158 11.0034C17.4158 11.3701 17.095 11.6909 16.7283 11.6909Z" fill="#262626"/>
<path id="Vector_3" d="M11.0908 17.3285C10.7242 17.3285 10.4033 17.0076 10.4033 16.641V5.36597C10.4033 4.9993 10.7242 4.67847 11.0908 4.67847C11.4575 4.67847 11.7783 4.9993 11.7783 5.36597V16.641C11.7783 17.0076 11.4575 17.3285 11.0908 17.3285Z" fill="#262626"/>
</g>
<defs>
<clipPath id="clip0_203_120">
<rect width="22" height="22" fill="white" transform="translate(0.0908203 0.00341797)"/>
</clipPath>
</defs>
</svg>
