<svg width="24" height="24" viewBox="0 0 24 24" fill="none" xmlns="http://www.w3.org/2000/svg">
<g id="Video">
<path id="Subtract" fill-rule="evenodd" clip-rule="evenodd" d="M18.0509 2.0135H5.1709C3.40359 2.0135 1.9709 3.44619 1.9709 5.2135V18.0935C1.9709 19.8608 3.40359 21.2935 5.1709 21.2935H18.0509C19.8182 21.2935 21.2509 19.8608 21.2509 18.0935V5.2135C21.2509 3.44619 19.8182 2.0135 18.0509 2.0135ZM5.1709 0.213501C2.40947 0.213501 0.170898 2.45208 0.170898 5.2135V18.0935C0.170898 20.8549 2.40947 23.0935 5.1709 23.0935H18.0509C20.8123 23.0935 23.0509 20.8549 23.0509 18.0935V5.2135C23.0509 2.45208 20.8123 0.213501 18.0509 0.213501H5.1709Z" fill="#161722"/>
<g id="lines">
<line id="Line 2" x1="1.08618" y1="6.63516" x2="22.1358" y2="6.63516" stroke="#161722" stroke-width="1.8"/>
<line id="Line 3" x1="9.00471" y1="6.56908" x2="5.05291" y2="0.925325" stroke="#161722" stroke-width="1.8"/>
<line id="Line 4" x1="16.2659" y1="6.58031" x2="12.2539" y2="0.850467" stroke="#161722" stroke-width="1.8"/>
</g>
<path id="Polygon 1" d="M14.978 13.7411C15.6447 14.126 15.6447 15.0882 14.978 15.4731L10.4276 18.1003C9.76096 18.4852 8.92763 18.0041 8.92763 17.2343L8.92763 11.9799C8.92763 11.2101 9.76096 10.729 10.4276 11.1139L14.978 13.7411Z" fill="#161722"/>
</g>
</svg>
